<svg xmlns="http://www.w3.org/2000/svg" viewBox="0 0 225.04 225.04"><defs><style>.cls-1{fill:#0eade4;}.cls-1,.cls-2,.cls-3,.cls-4,.cls-5{fill-rule:evenodd;}.cls-2{fill:#163962;}.cls-3{fill:#3558a8;}.cls-4{fill:#799eb2;}.cls-5{fill:#b2d4e5;}</style></defs><title>blockchain</title><g id="Layer_2" data-name="Layer 2"><g id="Layer_1-2" data-name="Layer 1"><path class="cls-1" d="M36.77,159.05c2.43,3.55,45.75,46.09,52.69,53C95.36,218,100,224.36,110.86,225h3.86c10.43-.68,14.82-6.89,20.49-12.58,6.86-6.86,50.86-50.06,53.07-53.46l-28.72-28.83c-3-1.93-8.93-8.56-11.9-11.54L118.52,89.26c-2.21-2.24-3.63-4.28-6.27-5.33-5.72,6.69-29.51,29.74-37.67,37.9-5,5-34.95,35.55-37.81,37.22Z"/><path class="cls-2" d="M36.77,159.05c2.86-1.67,32.85-32.23,37.81-37.22,8.16-8.16,32-31.21,37.67-37.9v-.7c-2.83-4.48-41.61-40.57-46.2-46.46-3.26,2.09-52.3,51.87-56.5,56.06C4.17,98.22.91,103.89,0,109.59v6.6c.82,5.1,3.6,10.12,8.45,14.91Z"/><path class="cls-3" d="M112.25,83.23v.7c2.64,1,4.06,3.09,6.27,5.33l29.14,29.37c3,3,8.93,9.61,11.9,11.54,6-5.5,44.51-43.4,46.24-46.92L159.08,36.77c-2,2.63-43.88,45.21-46.83,46.46Z"/><path class="cls-4" d="M66.05,36.77c4.59,5.89,43.37,42,46.2,46.46,3-1.25,44.85-43.83,46.83-46.46L138.59,15.93C132,9.33,126.48.74,114.26,0h-3.51C98.59.74,93.4,9,86.83,15.56c-4.54,4.54-18.17,17-20.78,21.21Z"/><path class="cls-5" d="M159.56,130.17,188.28,159c2.92-1.88,30.75-29.85,32.88-33.11A24.4,24.4,0,0,0,225,113.73v-2.64a23.72,23.72,0,0,0-3.29-11c-2.55-4.22-12.21-13.57-15.95-16.81-1.73,3.52-40.26,41.42-46.24,46.92Z"/></g></g></svg>