<?xml version="1.0" encoding="iso-8859-1"?>
<!-- Uploaded to: SVG Repo, www.svgrepo.com, Generator: SVG Repo Mixer Tools -->
<svg height="800px" width="800px" version="1.1" id="Layer_1" xmlns="http://www.w3.org/2000/svg" xmlns:xlink="http://www.w3.org/1999/xlink" 
	 viewBox="0 0 512 512" xml:space="preserve">
<path style="fill:#127C8D;" d="M256,0l-22.505,253.654L256,512c141.385,0,256-114.615,256-256S397.385,0,256,0z"/>
<path style="fill:#FFD15D;" d="M256,33.758l-22.505,219.896L256,478.242c122.74,0,222.242-99.501,222.242-222.242
	S378.74,33.758,256,33.758z"/>
<path style="fill:#FF9E46;" d="M256,93.514l-22.505,160.14L256,418.486c89.596,0,162.486-72.891,162.486-162.486
	S345.596,93.514,256,93.514z"/>
<path style="fill:#FF7226;" d="M256,153.269l-22.505,100.384L256,358.73c56.646,0,102.731-46.085,102.731-102.731
	S312.646,153.269,256,153.269z"/>
<path style="fill:#BD0D38;" d="M256,203.907l-22.505,49.747L256,308.093c28.77,0,52.093-23.322,52.093-52.093
	C308.093,227.23,284.77,203.907,256,203.907z"/>
<path style="fill:#4BBCD6;" d="M183.601,10.382c-23.241,6.839-45.108,16.889-65.088,29.634c0.151-0.095,0.299-0.179,0.451-0.275
	l-75.649,73.735C15.961,154.214,0,203.243,0,256c0,47.007,12.682,91.046,34.792,128.907L178.516,500.05
	C202.96,507.804,228.989,512,256,512V73.143L183.601,10.382z"/>
<g>
	<path style="fill:#127C8D;" d="M170.767,369.222H145.66v-7.124c0-30.615-24.819-55.433-55.433-55.433
		c-5.033,0-9.905,0.683-14.541,1.94v-30.307c9.047-3.415,15.493-12.129,15.493-22.372v-18.757c3.424,0.881,34.311,0.58,54.238,0.286
		v10.967c0,4.661,3.778,8.44,8.44,8.44s8.44-3.779,8.44-8.44V120.196c11.346-4.195,19.436-15.109,19.436-27.914
		c0-16.432-13.321-29.753-29.753-29.753h-5.247l-27.768-22.788c-30.039,19.076-55.834,44.232-75.649,73.745v142.44
		c0,10.242,6.446,18.956,15.493,22.372v38.137c-14.503,9.998-24.014,26.716-24.014,45.664v22.809
		c31.687,54.258,82.758,95.805,143.723,115.144v-56.437c17.046-3.573,29.848-18.686,29.848-36.794
		C208.364,386.055,191.531,369.222,170.767,369.222z"/>
	<path style="fill:#127C8D;" d="M127.204,261.524c-4.662,0-8.44,3.779-8.44,8.44v3.335c0,4.661,3.778,8.44,8.44,8.44
		c4.662,0,8.44-3.779,8.44-8.44v-3.335C135.644,265.303,131.866,261.524,127.204,261.524z"/>
</g>
<path style="fill:#FFFFFF;" d="M183.607,10.399c5.05,35.469,35.529,62.744,72.393,62.744V0C230.855,0,206.563,3.643,183.607,10.399z
	"/>
</svg>