<svg xmlns="http://www.w3.org/2000/svg" viewBox="0 0 225.95 214.96"><defs><style>.cls-1,.cls-2{fill:#1b75bc;stroke:#1b75bc;}.cls-1,.cls-2,.cls-3,.cls-4{stroke-miterlimit:10;fill-rule:evenodd;}.cls-1,.cls-4{stroke-width:0.12px;}.cls-3,.cls-4{fill:#27aae1;stroke:#27aae1;}.cls-5{font-size:34.53px;fill:#00a79d;font-family:MicrosoftTaiLe-Bold, Microsoft Tai Le;font-weight:700;}</style></defs><title>cloud_computing_2</title><g id="Layer_2" data-name="Layer 2"><g id="Layer_1-2" data-name="Layer 1"><path class="cls-1" d="M29.89,118.31c-1.24-5.4,6.06-6.48,7.08-2,1.17,5.06-6.17,6-7.08,2ZM133,29.12c.23-1.49.07-1,.75-1.94,1.76.83,4.52,4.47,5,6l-.87.67-4.53-4.51c0-.18-.24-.15-.35-.22ZM44.38,75.54c-1.69-.62-.49.24-1.54-1-1.33-3.42,0-20.78-1.3-21.13-.09,0-.27-.13-.39-.16-1.7-.33-1.27,0-2.14.13-1.24.15-2.29.07-3.52.21-7.44.74-15.37,5.73-16.81,4.92-3.53.53-10.91,9.21-13,12.77C-9.88,97.52,10.92,122.69,19.85,125c.84-.9,0,.37.92-1.18a16.12,16.12,0,0,0,.81-1.85l-2.43.05a13.08,13.08,0,0,0-1.83-1.72l-5.82-6c-.05,0-.18-.09-.23-.13-2.82-2.46-3.74-5.47-4.68-7.49-5.78-12.22-4.78-25.84,3-36.2,0,0,.62-.84.66-.89A7.47,7.47,0,0,0,11,68.36c1-1.62.69-1.32,2-2.25l4.13-3.62c2.57-2.34,6.67-4.4,10-5.84,2.76-1.22,10.38-2.24,13.76-2.15-1.15,6.89-.41,13.72.86,20.15.72,3.64,1.18,6,2,8.8a30.87,30.87,0,0,0,1.38,3.86c1,2.47.27,1.59.36,4.31,1-.31.77-.23,1.37-.9.55,3.08,1,2.68,2.3,5,2.18,4,2.86,3.48,2,5,3.42.28,1.54,1.32,5.46,5.38,1.08,1.13.71.4,1.3,2.27h-2c-1.08-2.4.63-1.91-2.09-2.65-.41.56-.37,0-.6,1.11a9.64,9.64,0,0,0-.08,1.43c-1.61,0-3.53-.12-5.08,0-1.07.09-1.52.09-2.13.58l-1,1.59a21.26,21.26,0,0,0-3.66.79c-1.51-1.3-1.41-3.14-3.67-2.85-1.71.22-1,.32-.59.91l1.73.47c-1.12,2.28-.59,0-1.78,2.46,3.07-.31,5.7-.33,4,3.58l-2.61.85c1-3.06.69-.41,1.55-3.06-3.57.39-5.61.17-4-3.62.55-2,.31-.5-.44-1.11-1.3,1.79-.73.54-1.5,3.24-1.3.53-3.68,1.08-4.77,2.5a10.17,10.17,0,0,0-1,2l-2.24.15.36.9c1.34-.4.46-.53,2.1-.06l-.53,2c3.72,3.43.23,1.21,3.81,2.49a3.71,3.71,0,0,1,.4.19,2.36,2.36,0,0,1,.37.23c-.06.12-.15,1.62-2.22,1.5-1.39-.08-1.76-1-2.38-1.72-2.25-2.53-3-.93-3.32-5.23-2.31.12-.52-.13-1.2.75l-.12,3.7,2.48,0c3.05,2.35,2.47,4.19.89,6.79,4.81,4,40.46,2.63,49.57,2.63,4.16,0,9,.27,13.07.05,2.66-.14,6.71-3,8.69-4.4l11.67-8.2c1.64-1.26,2.24-2.07,3.84-3.09-.13-.12-.26-.53-.34-.4s-.37-.58-1.21-.71c.71-1.15.61-.31-.25-.71l2.72-2.29a25.57,25.57,0,0,1,2.27-1.82,21.49,21.49,0,0,0,2.15-2.11l2.64-2.13c.2-.12.42-.21.64-.33l.31,2.18c3-1.3,11.49-10.93,13.47-13.44C148,78.07,159.63,63.17,165.09,42.35c1.86-7.11,2.23-7.45-1.76-13.28-2-2.92-5.34-8-8.1-9.93-2.86.78-2.87-2.17-7-2.5-.51,4.32,3,3.33,2.28,6.46-1.74.09-1.2-.34-2.79-1.58.35,4-.62,3.87-2.3,5.35-.07.06-.25.43-.31.33s-.2.25-.31.37c.09.11.24.26.3.34l.3.35c0,.09.19.24.25.33.77,1.06-.08-.51.56,1.08l-.67.93c-.93-.37-6.75-4.75-5.14-9.36-.67-1.55.34.25-1.15-.67l-.61,3.57c-.1,1.53.1.62-.74,1.89l1.91,2.66c2.33,0,1.22-.46,2.52.44-1.43,3.88-4.15-.66-5.47-1.62l-2.09-2.68L133,24.31l-.32,2.74c-2.65.1-1.54.09-2.41.68,1.1.66.71.07,1,1.45l1.73-.06v.44l.3,1.54c-1.94.13-1.35-.3-1.57,1,3.4-.37,5-.66,4,3.33-1.08,1-1.4,1.77-3,.51.34-1.49.76-.48,1.59-2.27-2.78.44-2.52.94-4.41-.61l0-2.5c-.58.33-.71,0-1.19.48l.12,2.44c4,1.56,5.16,7.89-3,7.33.14,3-.59,4.26-3.09,5l1.1,2.54c0-.08-.06.2-.09.31s0,2.2-2.71-1.35c-4.06-5.39-4.12-4.34-.81-9l4,.14c-1-2.77.74-3.89,2.46-5l-2.62-.17c-1.09,1.42-.49.3-1.21,3.14-6.71.19-3.77,4.42-7.66,5.73-2.28.79-2.22,0-2.63,2.12l-1.69.16c-.54-2-.23-.65-.9-1.37-1.64-.2,0-.21-.69.94,1.15,1.39,1.81,2.22,3.17,3.79.54-3.94,1-4.41,5.16-4.85l.52,5c1.1-1,.27-.74,1.86-1.08.06,3.47-2.42,4.63-5.67,3.53.72,7.26-8.92,7.68-7.59-.54l-2.91.06c-.12,4.59,1.58,3.47-.27,6.26l-.85,1.76-12.7.95c-.93.07-1.53-.21-2.28.07-.22,8,2,8.7-8.44,8,0,2.14.29,6-.25,8a2.55,2.55,0,0,1-2.44,2.39l-6.11.09-.16,1.86c2-.12,2.44-.78,4.2-.68,1.42.09,2.29.92,4.24,1.1-.07,2.61.58,5.48-1.62,5.9s-4.84-.52-6.82.53c.77.51-1.57.88,4,.4,1-.08,2.38.23,4.3.2-1.14,2.12,0-.62-.12,3.91-1.83,0-3.75,0-5.57,0a7.47,7.47,0,0,0-1.5.12c-2.07.5.34.63-3.69,1-6.67.53-3.17-.06-8.35.12.38,1.92.25,2,2.54,2.11-.7,1.08-.34-.06-.68,1.92-1.16-2.42-.59-.48-.8-.39,0,1.75.06,3.23.15,4.79.25,3.85.68.59.91,4.12-.06-.1-.16-.41-.19-.33l-3.69-6.34c0-.06-.14-.17-.17-.22L57.09,96c-.59-1.7-1.49-1.85-2.34-4.16-2-5.59-2.24-2.44-2.38-6.07-.06-1.62.27-1.94.11-4L50.57,81c-.46-5.93-1.68-12.82-1.36-16.37.52-5.45.4-12.15,2.08-17,.82-2.31,1.65-4.41,2.58-6.89,1.34-3.54,7.24-13.1,8.34-14.64,1-1.39,1.19-1.82,3-2.23.07-2.88.59-2.51,3-4.41l6.46-5c4.88-3.59,1.72-1.4,6.76-4,3.21-1.66-1.77,0,6.56-3.54,15.67-6.61,23.08-2.66,34.1-4,.11-.36.13,0-.26.69l6.33,1.72c4.19,1.3,11.7,4.52,15.18,7.06-1.24,1.24-1,.61-2,2.09l1.33,2.94c2.24-.24.27.15,1.1-.76-1.44-1.73-1-.29-1.08-2.86,3.75.51-.19-.23,3.89,2.44,1.08-2.55,2.21-1.36,2.42-2.1,0-.12.13-.15.18-.23C148.11,11,133.15,4.31,131,3.54A64.62,64.62,0,0,0,105,.26C73,2.79,48.62,29.59,46.48,60.4a66,66,0,0,0,7.65,36.65,51.48,51.48,0,0,0,5.12,8.06s.49.84.63,1.08a59.21,59.21,0,0,1-9.46-13.74c-4.54-8.7-3.83-10.91-6-16.91Z"/><path class="cls-1" d="M106.85,49.76a21.16,21.16,0,0,1,2.77-1.85,12.62,12.62,0,0,1-2.07-3.59c1-.57.37-.49,1.85-.39.69-1.15-1-1.14.69-.94.67.72.36-.68.9,1.37l1.69-.16c.41-2.09.35-1.33,2.63-2.12,3.89-1.31,1-5.54,7.66-5.73.72-2.84.12-1.72,1.21-3.14l2.62.17,2,.06L128.73,31c.48-.46.61-.15,1.19-.48,1.18-.9,1-1,3-1v-.44l-1.73.06c-.25-1.38.14-.79-1-1.45.87-.59-.24-.58,2.41-.68l.32-2.74,1.75.52.1-1.2c2.14.21.47.7,3.77.51l.61-3.57c1.49.92.48-.88,1.15.67,2.6-2.15,2.56-2.32,5.94-1.3-.58-1.16,0-.48-1.17-1.91a9.78,9.78,0,0,0-1.34-1.32c-.83.91,1.14.52-1.1.76l-1.33-2.94c.95-1.48.74-.85,2-2.09-3.48-2.54-11-5.76-15.18-7.06l-6.33-1.72c.39-.71.37-1.05.26-.69C111.08,4.31,103.67.36,88,7c-8.33,3.51-3.35,1.88-6.56,3.54-5,2.6-1.88.41-6.76,4l-6.46,5c-2.39,1.9-2.91,1.53-3,4.41-1.84.41-2.06.84-3,2.23-1.1,1.54-7,11.1-8.34,14.64-.93,2.48-1.76,4.58-2.58,6.89-1.68,4.8-1.56,11.5-2.08,17-.32,3.55.9,10.44,1.36,16.37l1.91.83c.16,2-.17,2.36-.11,4,.14,3.63.36.48,2.38,6.07.85,2.31,1.75,2.46,2.34,4.16l.47,1.37s.14.16.17.22L61.42,104c0-.08.13.23.19.33-.23-3.53-.66-.27-.91-4.12-.09-1.56-.15-3-.15-4.79.21-.09-.36-2,.8.39.34-2,0-.84.68-1.92-2.29-.15-2.16-.19-2.54-2.11,5.18-.18,1.68.41,8.35-.12,4-.33,1.62-.46,3.69-1a7.47,7.47,0,0,1,1.5-.12c1.82-.07,3.74,0,5.57,0,.16-4.53-1-1.79.12-3.91-1.92,0-3.34-.28-4.3-.2-5.55.48-3.21.11-4-.4,2-1,4.57-.14,6.82-.53s1.55-3.29,1.62-5.9c-1.95-.18-2.82-1-4.24-1.1-1.76-.1-2.22.56-4.2.68l.16-1.86,6.11-.09a2.55,2.55,0,0,0,2.44-2.39c.54-1.93.25-5.83.25-8,10.47.74,8.22,0,8.44-8,.75-.28,1.35,0,2.28-.07l12.7-.95.85-1.76c1.85-2.79.15-1.67.27-6.26Z"/><path class="cls-1" d="M21.58,122l1.67-.5.12-3.7c.68-.88-1.11-.63,1.2-.75l1.41-.31,2.24-.15a10.17,10.17,0,0,1,1-2c1.09-1.42,3.47-2,4.77-2.5.77-2.7.2-1.45,1.5-3.24.75.61,1-.93.44,1.11l1.08-.68c-.4-.59-1.12-.69.59-.91,2.26-.29,2.16,1.55,3.67,2.85a21.26,21.26,0,0,1,3.66-.79l1-1.59c.61-.49,1.06-.49,2.13-.58,1.55-.12,3.47,0,5.08,0a9.64,9.64,0,0,1,.08-1.43c.23-1.11.19-.55.6-1.11,2.72.74,1,.25,2.09,2.65h2c-.59-1.87-.22-1.14-1.3-2.27-3.92-4.06-2-5.1-5.46-5.38.9-1.52.22-1-2-5-1.3-2.33-1.75-1.93-2.3-5-.6.67-.39.59-1.37.9-.09-2.72.61-1.84-.36-4.31a30.87,30.87,0,0,1-1.38-3.86c-.79-2.82-1.25-5.16-2-8.8-1.27-6.43-2-13.26-.86-20.15-3.38-.09-11,.93-13.76,2.15-3.31,1.44-7.41,3.5-10,5.84l-4.13,3.62c-1.33.93-1.05.63-2,2.25a7.47,7.47,0,0,1-.79,1.25s-.63.86-.66.89c-7.78,10.36-8.78,24-3,36.2.94,2,1.86,5,4.68,7.49.05,0,.18.1.23.13l5.82,6A13.08,13.08,0,0,1,19.15,122Z"/><path class="cls-1" d="M108.7,50.5l2.32-.94c1.07.82,1.52,1,1.6,2.52a3.48,3.48,0,0,1-2,1.86l-1.88-.74Zm.7-6.57c-1.48-.1-.86-.18-1.85.39a12.62,12.62,0,0,0,2.07,3.59,21.16,21.16,0,0,0-2.77,1.85c-1.33,8.22,8.31,7.8,7.59.54,3.25,1.1,5.73-.06,5.67-3.53-1.59.34-.76.07-1.86,1.08l-.52-5c-4.19.44-4.62.91-5.16,4.85-1.36-1.57-2-2.4-3.17-3.79Z"/><path class="cls-1" d="M144,21.12c1.88.83,2.34.67,1.66,3.31-1.42,1.16-2,1.41-3.54,0l-.38-1.78Zm-.19-4.41A9.78,9.78,0,0,1,145.14,18c1.19,1.43.59.75,1.17,1.91-3.38-1-3.34-.85-5.94,1.3-1.61,4.61,4.21,9,5.14,9.36l.67-.93c-.64-1.59.21,0-.56-1.08-.06-.09-.2-.24-.25-.33l-.3-.35c-.06-.08-.21-.23-.3-.34.11-.12.26-.48.31-.37s.24-.27.31-.33c1.68-1.48,2.65-1.37,2.3-5.35,1.59,1.24,1.05,1.67,2.79,1.58.74-3.13-2.79-2.14-2.28-6.46,4.16.33,4.17,3.28,7,2.5a4,4,0,0,0-1.3-1.52c-.66-.61-.61-.52-1.32-1.26a8.24,8.24,0,0,0-3.4-2.4c-.05.08-.15.11-.18.23-.21.74-1.34-.45-2.42,2.1-4.08-2.67-.14-1.93-3.89-2.44.06,2.57-.36,1.13,1.08,2.86Z"/><path class="cls-1" d="M120.79,43.87c-1.05-1.67-1-1.76.06-3.6l2.74.14c1.06,2.46.34,4.25-2.8,3.46ZM126,36.44c1.2-1.75,2.47-1.56,4,0-.24,3.71-3.88,3.78-4,0Zm2.87-3-2-.06c-1.72,1.15-3.42,2.27-2.46,5l-4-.14c-3.31,4.65-3.25,3.6.81,9,2.67,3.55,2.7,1.36,2.71,1.35s.09-.39.09-.31l-1.1-2.54c2.5-.74,3.23-2,3.09-5,8.12.56,6.91-5.77,3-7.33Z"/><path class="cls-1" d="M18.68,58.48c1.44.81,9.37-4.18,16.81-4.92,1.23-.14,2.28-.06,3.52-.21.87-.1.44-.46,2.14-.13.12,0,.3.13.39.16,1.28.35,0,17.71,1.3,21.13,1,1.27-.15.41,1.54,1a95.57,95.57,0,0,1-.49-23.61c-8.67-.62-15.24,1-22.68,4.63-2.93,1.43-2,1.28-2.53,1.92Z"/><path class="cls-1" d="M113.46,115.25c1.63-1.15,8.32-6.51,8.93-8.32l-.31-2.18c-.22.12-.44.21-.64.33l-2.64,2.13a21.49,21.49,0,0,1-2.15,2.11,25.57,25.57,0,0,0-2.27,1.82l-2.72,2.29c.86.4,1-.44.25.71.84.13,1.12.84,1.21.71s.21.28.34.4Z"/><path class="cls-1" d="M32.13,119.12c-1.61-2.66-.65-4.58,2.62-3.63a3.83,3.83,0,0,1,.34,3.6Zm-2.24-.81c.91,4,8.25,3,7.08-2-1-4.47-8.32-3.39-7.08,2Z"/><path class="cls-1" d="M21.58,122a16.12,16.12,0,0,1-.81,1.85c-.88,1.55-.08.28-.92,1.18.52.52,0,.36.89.79s.48.19,1.31.47l.05-2.13c2.3-1.73,4.24-1.51,3.86,2.2-1.34,1.2-.42.34-1.73,1l2.39.92c1.58-2.6,2.16-4.44-.89-6.79l-2.48,0Z"/><path class="cls-2" d="M129.92,30.52l0,2.5c1.89,1.55,1.63,1,4.41.61-.83,1.79-1.25.78-1.59,2.27,1.59,1.26,1.91.49,3-.51.95-4-.62-3.7-4-3.33.22-1.26-.37-.83,1.57-1l-.3-1.54c-2.07-.06-1.86.06-3,1Z"/><path class="cls-2" d="M26,116.73l-1.41.31c.28,4.3,1.07,2.7,3.32,5.23.62.7,1,1.64,2.38,1.72,2.07.12,2.16-1.38,2.22-1.5a2.36,2.36,0,0,0-.37-.23,3.71,3.71,0,0,0-.4-.19c-3.58-1.28-.09.94-3.81-2.49l.53-2c-1.64-.47-.76-.34-2.1.06Z"/><path class="cls-1" d="M35.89,110c-1.66,3.79.38,4,4,3.62-.86,2.65-.56,0-1.55,3.06l2.61-.85c1.72-3.91-.91-3.89-4-3.58,1.19-2.41.66-.18,1.78-2.46L37,109.29Z"/><path class="cls-1" d="M134.74,24.83l2.09,2.68c1.32,1,4,5.5,5.47,1.62-1.3-.9-.19-.41-2.52-.44L137.87,26c.84-1.27.64-.36.74-1.89-3.3.19-1.63-.3-3.77-.51Z"/><path class="cls-2" d="M133,29.12c.11.07.31,0,.35.22l4.53,4.51.87-.67c-.48-1.53-3.24-5.17-5-6-.68.9-.52.45-.75,1.94Z"/><path class="cls-2" d="M32.13,119.12l3,0a3.83,3.83,0,0,0-.34-3.6c-3.27-.95-4.23,1-2.62,3.63Z"/><path class="cls-2" d="M22.05,126.28l2.18,1.06c1.31-.65.39.21,1.73-1,.38-3.71-1.56-3.93-3.86-2.2Z"/><path class="cls-2" d="M141.73,22.67l.38,1.78c1.58,1.39,2.12,1.14,3.54,0,.68-2.64.22-2.48-1.66-3.31Z"/><path class="cls-2" d="M110.61,53.94a3.48,3.48,0,0,0,2-1.86c-.08-1.52-.53-1.7-1.6-2.52l-2.32.94,0,2.7Z"/><path class="cls-2" d="M120.79,43.87c3.14.79,3.86-1,2.8-3.46l-2.74-.14c-1.06,1.84-1.11,1.93-.06,3.6Z"/><path class="cls-2" d="M126,36.44c.09,3.78,3.73,3.71,4,0-1.5-1.56-2.77-1.75-4,0Z"/><path class="cls-3" d="M29.39,145.43l-.17-2.37c2.49.68,1.72,1.11,3.72,2L26,135.57c.16,2.21,1.28,7,2.48,8.9.47.75.41.5.87,1Z"/><path class="cls-3" d="M168.84,12.78c.24,1.88,1.42,3,2.52,6.11,9.36,26.92-15.81,64.71-32.75,83.41-1.82,2-8,8.09-8.93,9.74l.34,2c-1.43.59.46.19-1.76.51-.38,2.77,1.16-.38-2.75,3.92-2.87,3.16-7.08,5.37-9.43,7.72s-3.56,2.24-4.86,4.42c2.15-.61.76-.39,3-1-.24,2.19,0,1.7-1.56,2.75l-7,3.62c.87.51.56.09,1,1.29,3.68-1.48,1.15-.46,2.1.47-1.94.77-4.5,2.07-5.37,3.73l1,.46c1.61-1.41,5.32-2.69,6.28-4.38,4.2,0,.5-.19,1.76,1,5.79-3.52,2.91-4,11.28-4h46.94c19-.08,32-1.35,45.13-17.64,21.72-26.88,5-70.86-33-73.46-.38-7.34,3.9-23.94-8.56-34.67-1.08-.93-2.63-2.31-4-2.5l-.49.19c.86.92.46-1.27,1,1.86a4.09,4.09,0,0,1-1.85,4.45Z"/><path class="cls-4" d="M33,145.06c-2-.89-1.22-1.32-3.72-2l.18,2.37c.48,2.83,4.71,7,6.56,8.33,21.51,16,59.25-2.72,76.45-15.25-1.26-1.2,2.44-1-1.76-1-1,1.69-4.67,3-6.28,4.38l-1-.46c-9.27,3.75-12.33,8.5-30.74,13.51-11,3-29.05,4-36-4.33,3.19.62,6.3,2.47,10,2.79a64.1,64.1,0,0,0,12.39.2c13.11-1.42,30.56-8.62,41.19-15.54l10.94-7.45c1.3-2.18,2.45-2,4.86-4.42s6.56-4.56,9.43-7.72c3.91-4.3,2.37-1.15,2.75-3.92,2.22-.32.33.08,1.76-.51l-.34-2L110.2,128.16c-12.85,9.46-31.88,20.12-48.54,22.35-5.32.71-11.19,1.05-16.5-.15a29.31,29.31,0,0,1-6.68-2.23c-3.43-1.57-3.43-2.67-5.49-3.07Z"/><path class="cls-4" d="M111.22,130.6l-10.94,7.45C89.65,145,72.2,152.17,59.09,153.59a64.1,64.1,0,0,1-12.39-.2c-3.68-.32-6.79-2.17-10-2.79,7,8.32,25.06,7.3,36,4.33,18.41-5,21.47-9.76,30.74-13.51.87-1.66,3.43-3,5.37-3.73-1-.93,1.58-1.95-2.1-.47-.49-1.2-.18-.78-1-1.29l7-3.62c1.59-1.05,1.32-.56,1.56-2.75-2.27.65-.88.43-3,1Z"/><path class="cls-3" d="M163.18,7.31c.12-.1.3-.42.36-.32s.4-.4.66-.61a2.8,2.8,0,0,1,1.35-.82c1.48-.39,1.86.05,3.56-.12-2.69-2.35-15.06-5.37-19.17-3.55,1.77.78,4.89,1.14,7.22,2.07a26.76,26.76,0,0,1,6,3.35Z"/><path class="cls-4" d="M163.18,7.31l1.75.89,1.46-1.51,2,.83.44,2.19-1.31,1.34c.69,1.62.09.88,1.37,1.73a4.09,4.09,0,0,0,1.85-4.45,2.2,2.2,0,0,0-.91-2.45,4.39,4.39,0,0,0-4.23-.32,2.8,2.8,0,0,0-1.35.82c-.26.21-.59.73-.66.61s-.24.22-.36.32Z"/><path class="cls-4" d="M164.93,8.2a4.87,4.87,0,0,0,2.54,2.85l1.31-1.34-.44-2.19-2-.83Z"/><text class="cls-5" transform="translate(48.52 203.07)">CLOUD</text><path class="cls-2" d="M58.27,106.64c-1.07-.65-4.28-4.5-5.14-5.57S46.7,88.42,46.7,88.42L42.84,73.21l-.64-12,.43-8.57-11.14.85-12.81,5-7.34,6.8L3,79,1.49,89.28v9.43l2.35,8.36L12,118.21l5.57,4.28,7.07,3.65,8.57,2.35s13.93.22,16.93.86,27.64.86,27.64.86l13.29-.86,14.57-9,14.57-12.21,10.5-10.72,13.29-15,9.64-14.35,7.5-15.22,3.43-11.57L165.84,34,154.7,20.07,149,14.19,142.7,9.78,127.92,3.57,113.56.78l-14.14.86L88.49,4.42,76.7,10.64,63,22.64,54.2,35.71,49.7,46,47.56,71.71l3,14.14,4.71,11.57Z"/></g></g></svg>