<svg xmlns="http://www.w3.org/2000/svg" viewBox="0 0 186.23 207.94"><defs><style>.cls-1{fill:#45b1bd;}.cls-1,.cls-2{fill-rule:evenodd;}.cls-2{fill:#435b62;}</style></defs><title>compiler</title><g id="Layer_2" data-name="Layer 2"><g id="Layer_1-2" data-name="Layer 1"><path class="cls-1" d="M25,67.68c-.72,2.48-3.58,11.11-4.64,13.21-1.83,3.53-7.53,4.75-12.4,5.32C3.2,87.16.69,87.73.2,92.87c-.42,4.22,0,10.42,0,14.87-.08,19.14,4,10,13.2,16.17,6.92.84,7.8,3.62,8.9,10a3.38,3.38,0,0,1,.23.34c0,.08.19.31.23.38,1.82,3.39,6.24,12,5.55,15.07-.95,4.3-7.42,11.3-7.3,15.94.11,3.84,2.81,5.4,4.75,7.38,18.53,18.68,14.92,14.53,27.13,8.75,3.84-1.83,5.17-2.62,8.06-1.83.19,0,.39.16.58.19,25.1,8.45,20.88,7.92,24.69,20.66,2.51,8.6,4.07,6.93,15.18,6.89,7.19,0,16.54,1.86,18.87-3.84,2-4.84,2.54-13.85,6-16.21,1.87-1.26,6.47-2.32,8.68-3.2,13.5-5.32,11.68-7,24.16-.07,8.14,4.52,9.62.72,14.83-4,2.06-1.86,9.78-9.32,11.11-11.22,5.37-7.8-9.66-15.79-5.29-24.54,4.53-9.13,5.52-9.43-16.09-8.86-11.45.3-7,12.29-31,24.84-58,30.4-119.2-38.8-80.7-93.28,1.15-1.6,2.36-3.62,4.08-4.46,1.59-4.37,9.24-10.08,13-11.67l3-2.36a62.83,62.83,0,0,1,32.3-8.37c9.82.07,30.59,5.09,34.13,11a10.07,10.07,0,0,1,3.72,2.21c.31.23,1,.76,1.26,1,1.29,1.33-.08-.46,1.1,1.68,2.4.76,4.34,3.38,6.39,5.66,1.72,1.91,4.49,4.84,4.95,7.42,2.82,1.37,1.22-.11,2.59,2.51,5.13.38,18.45,1,23.47,0,1.86-6.58-5.55-8.21-2.47-15.06,1.44-3.2,6.5-10.5,6.69-13.58.27-4-4-6.93-8.75-11.46-1.44-1.36-8.18-8.86-9.77-9.62-4.34-2.13-10.47,2.55-14.31,4.83-6.58,3.92-8.06,1.29-14.19-1.52-18.64-8.6-11.83.27-18.72-20.54-2-6.21-8.37-4.49-15.37-4.49-5.44,0-14.61-1.72-17.34,2.47C85.38,6.47,85,13.93,82.9,18s-8.63,4.68-12.85,6.43c-4.84,2-8.91,6.43-14.39,3.57-3.08-1.6-9.73-6.73-13.62-6.54-4.14.23-20.77,18.72-20.77,18.72-2.81,8.29,13.28,17,3.73,27.46Z"/><polygon class="cls-2" points="65.52 86.21 142.41 86.25 142.41 71.91 65.52 71.95 65.52 86.21"/><polygon class="cls-2" points="65.67 136.58 142.41 136.62 142.14 122.77 65.56 122.73 65.67 136.58"/><path class="cls-2" d="M66,96.94c-1.29,4.41-.42,9.89-.53,14.61l63.57,0L128.56,97Z"/></g></g></svg>