<svg xmlns="http://www.w3.org/2000/svg" xmlns:xlink="http://www.w3.org/1999/xlink" viewBox="0 0 240.14 240.19"><defs><style>.cls-1{fill:url(#linear-gradient);}</style><linearGradient id="linear-gradient" x1="120.07" y1="606.78" x2="120.07" y2="366.59" gradientTransform="matrix(1, 0, 0, -1, 0, 606.78)" gradientUnits="userSpaceOnUse"><stop offset="0" stop-color="#33c5f3"/><stop offset="1" stop-color="#2874ae"/></linearGradient></defs><title>cryptography</title><g id="Layer_2" data-name="Layer 2"><g id="Layer_1-2" data-name="Layer 1"><path class="cls-1" d="M193.23,127.6a47.09,47.09,0,0,0-37.52,18.77H142.09v-18.9a16.42,16.42,0,1,0-18.76,0v18.9H103.16V96.17H69.38V77.74a16.42,16.42,0,1,0-18.77,0v37.2H84.39v31.43h-1L59.06,170.09v9.39l24.4,23.18h72.25a46.91,46.91,0,1,0,37.52-75.06Zm0,75.06a28.26,28.26,0,0,1-24.38-14.08l-2.71-4.68H130.23L116.66,171,104.4,183.9H91l-9.71-9.23L91,165.13h75.12l2.71-4.68a28.15,28.15,0,1,1,24.38,42.21ZM147.3,221.43H28.15a9.44,9.44,0,0,1-9.44-9.38V28.15a9.43,9.43,0,0,1,9.44-9.38h82V52.12a28.18,28.18,0,0,0,28.15,28.15h33.31v32.25a65.84,65.84,0,0,1,18.77-3.61V67L123.74,0H28.15A28.18,28.18,0,0,0,0,28.15v183.9a28.18,28.18,0,0,0,28.15,28.14H162.27a27.94,27.94,0,0,0,12.17-2.77,64.56,64.56,0,0,1-10.64-4.22A66.27,66.27,0,0,1,147.3,221.43ZM129,52.12V31.85l29.5,29.66H138.34A9.4,9.4,0,0,1,129,52.12Zm83,122.4a9.38,9.38,0,1,1-9.38-9.39A9.38,9.38,0,0,1,212,174.52Z"/></g></g></svg>