<?xml version="1.0" encoding="iso-8859-1"?>
<!-- Uploaded to: SVG Repo, www.svgrepo.com, Generator: SVG Repo Mixer Tools -->
<svg version="1.1" id="Layer_1" xmlns="http://www.w3.org/2000/svg" xmlns:xlink="http://www.w3.org/1999/xlink" 
	 viewBox="0 0 512.006 512.006" xml:space="preserve">
<g>
	<path style="fill:#127C8D;" d="M58.087,477.789l-23.87-23.87c-1.795-1.795-2.687-4.304-2.428-6.829l10.301-100.301l16.791,1.724
		l-9.891,96.31l18.196,18.196l96.31-9.891l1.724,16.791L64.917,480.216C62.391,480.476,59.883,479.583,58.087,477.789z"/>
	<polygon style="fill:#127C8D;" points="162.172,322.029 121.558,362.644 152.835,395.022 194,353.857 	"/>
	
		<rect x="147.93" y="242.892" transform="matrix(-0.7071 -0.7071 0.7071 -0.7071 267.2643 613.3677)" style="fill:#127C8D;" width="225.469" height="16.879"/>
</g>
<path style="fill:#4BBCD6;" d="M426.678,100.979l-15.653-15.653c-2.979-2.979-8.848-5.711-13.044-6.071l-41.14-3.54l79.448,79.448
	l-3.54-41.14C432.389,109.827,429.657,103.958,426.678,100.979z"/>
<rect x="348.536" y="79.157" transform="matrix(-0.7071 0.7071 -0.7071 -0.7071 738.7089 -35.3117)" style="fill:#127C8D;" width="56.263" height="112.358"/>
<rect x="191.914" y="116.16" transform="matrix(-0.7071 -0.7071 0.7071 -0.7071 271.5634 611.6165)" style="fill:#8FD9C2;" width="141.074" height="266.811"/>
<rect x="347.039" y="313.582" transform="matrix(-0.7071 -0.7071 0.7071 -0.7071 440.1425 847.4465)" style="fill:#127C8D;" width="97.088" height="37.97"/>
<rect x="320.198" y="340.431" transform="matrix(-0.7071 -0.7071 0.7071 -0.7071 375.3369 874.3013)" style="fill:#053847;" width="97.088" height="37.97"/>
<rect x="418.408" y="379.523" transform="matrix(-0.7071 0.7071 -0.7071 -0.7071 1049.3656 421.4732)" style="fill:#127C8D;" width="37.97" height="97.088"/>
<g>
	
		<rect x="445.271" y="352.673" transform="matrix(0.7071 -0.7071 0.7071 0.7071 -147.7257 445.7923)" style="fill:#4BBCD6;" width="37.97" height="97.088"/>
	
		<rect x="362.015" y="435.947" transform="matrix(0.7071 0.7071 -0.7071 0.7071 441.9356 -157.0623)" style="fill:#4BBCD6;" width="97.088" height="37.97"/>
</g>
<rect x="322.898" y="337.715" transform="matrix(-0.7071 0.7071 -0.7071 -0.7071 856.7559 417.6373)" style="fill:#127C8D;" width="37.97" height="97.088"/>
<rect x="133.608" y="94.716" transform="matrix(-0.7071 0.7071 -0.7071 -0.7071 361.7921 136.6614)" style="fill:#053847;" width="37.97" height="97.088"/>
<rect x="62.238" y="28.766" transform="matrix(-0.7071 -0.7071 0.7071 -0.7071 155.3521 159.8514)" style="fill:#4BBCD6;" width="97.088" height="37.97"/>
<g>
	
		<rect x="160.457" y="67.868" transform="matrix(0.7071 -0.7071 0.7071 0.7071 -29.7583 160.9811)" style="fill:#127C8D;" width="37.97" height="97.088"/>
	
		<rect x="35.397" y="55.609" transform="matrix(-0.7071 -0.7071 0.7071 -0.7071 90.5499 186.6948)" style="fill:#127C8D;" width="97.088" height="37.97"/>
	
		<rect x="77.197" y="151.134" transform="matrix(0.7071 0.7071 -0.7071 0.7071 157.1205 -39.0854)" style="fill:#127C8D;" width="97.088" height="37.97"/>
</g>
<g>
	
		<rect x="38.095" y="52.908" transform="matrix(-0.7071 0.7071 -0.7071 -0.7071 169.1797 132.8282)" style="fill:#4BBCD6;" width="37.97" height="97.088"/>
	<path style="fill:#4BBCD6;" d="M0,322.334l189.671,189.671c8.95-50.796-6.185-105.006-45.424-144.247S50.796,313.384,0,322.334z"/>
</g>
<path style="fill:#053847;" d="M34.216,501.659l-23.87-23.87c-3.296-3.296-3.296-8.64,0-11.936c3.296-3.296,8.64-3.296,11.936,0
	l23.87,23.87c3.296,3.296,3.296,8.64,0,11.936C42.856,504.955,37.512,504.955,34.216,501.659z"/>
</svg>